<svg xmlns="http://www.w3.org/2000/svg" width="512" height="512" viewBox="0 0 512 512">
  <defs>
    <linearGradient id="bg" x1="0" y1="0" x2="0" y2="1">
      <stop offset="0%" stop-color="#1e293b" />
      <stop offset="100%" stop-color="#0f172a" />
    </linearGradient>
    <radialGradient id="highlight" cx="50%" cy="35%" r="45%">
      <stop offset="0%" stop-color="#bae6fd" stop-opacity="0.8" />
      <stop offset="100%" stop-color="#38bdf8" stop-opacity="1" />
    </radialGradient>
    <filter id="shadow" x="-20%" y="-20%" width="140%" height="140%" filterUnits="objectBoundingBox">
      <feDropShadow dx="0" dy="18" stdDeviation="24" flood-color="#0ea5e9" flood-opacity="0.35" />
    </filter>
  </defs>
  <rect width="512" height="512" rx="128" fill="url(#bg)" />
  <g filter="url(#shadow)">
    <path d="M256 96c0 0-128 158.4-128 236.8 0 70.69 57.31 128 128 128s128-57.31 128-128C384 254.4 256 96 256 96z" fill="url(#highlight)" />
    <path d="M256 368c-30.93 0-56-25.07-56-56 0-36.72 37.6-95.36 54.4-120.53 1.01-1.53 3.19-1.53 4.2 0C274.4 216.64 312 275.28 312 312c0 30.93-25.07 56-56 56z" fill="#e0f2fe" opacity="0.85" />
  </g>
  <circle cx="208" cy="208" r="40" fill="#0ea5e9" opacity="0.35" />
  <circle cx="304" cy="176" r="28" fill="#bae6fd" opacity="0.25" />
</svg>
